<?xml version="1.0" encoding="utf-8"?>
<!-- Generator: Adobe Illustrator 18.0.0, SVG Export Plug-In . SVG Version: 6.00 Build 0)  -->
<!DOCTYPE svg PUBLIC "-//W3C//DTD SVG 1.1//EN" "http://www.w3.org/Graphics/SVG/1.1/DTD/svg11.dtd">
<svg version="1.1" id="Layer_1" xmlns="http://www.w3.org/2000/svg" xmlns:xlink="http://www.w3.org/1999/xlink" x="0px" y="0px"
	 width="110px" height="40px" viewBox="0 0 110 40" enable-background="new 0 0 110 40" xml:space="preserve">
<g>
	<g>
		<path fill="#4C5359" d="M50.2,21.4V32h-1V6.7h6c2.9,0,5,0.6,6.5,1.8c1.5,1.2,2.2,3.1,2.2,5.5c0,1.1-0.2,2.1-0.6,3s-1,1.7-1.8,2.3
			s-1.7,1.2-2.8,1.5c-1.1,0.4-2.3,0.5-3.6,0.5H50.2z M50.2,20.6h5.1c1.2,0,2.3-0.2,3.2-0.5c1-0.3,1.8-0.8,2.4-1.4s1.2-1.3,1.5-2.1
			c0.4-0.8,0.5-1.7,0.5-2.6c0-2.1-0.6-3.8-1.9-4.9s-3.2-1.7-5.8-1.7h-5.1V20.6z"/>
		<path fill="#4C5359" d="M74.3,14c1.3,0,2.4,0.2,3.4,0.7c1,0.4,1.8,1.1,2.5,1.9c0.7,0.8,1.2,1.8,1.5,2.9c0.3,1.1,0.5,2.4,0.5,3.8
			s-0.2,2.6-0.5,3.8c-0.3,1.1-0.9,2.1-1.5,2.9s-1.5,1.4-2.5,1.8c-1,0.4-2.1,0.6-3.4,0.6S72,32,71,31.6c-1-0.4-1.8-1-2.5-1.8
			S67.3,28,67,26.9c-0.3-1.1-0.5-2.4-0.5-3.8s0.2-2.6,0.5-3.8c0.3-1.1,0.9-2.1,1.5-2.9c0.7-0.8,1.5-1.4,2.5-1.9
			C72,14.2,73.1,14,74.3,14z M74.3,31.5c1.2,0,2.2-0.2,3-0.6c0.9-0.4,1.6-1,2.2-1.7c0.6-0.7,1-1.6,1.3-2.6c0.3-1,0.4-2.2,0.4-3.4
			s-0.1-2.4-0.4-3.4c-0.3-1-0.7-1.9-1.3-2.7s-1.3-1.3-2.2-1.7c-0.9-0.4-1.9-0.6-3-0.6s-2.2,0.2-3,0.6c-0.9,0.4-1.6,1-2.2,1.7
			c-0.6,0.7-1,1.6-1.3,2.7c-0.3,1-0.4,2.2-0.4,3.4s0.1,2.4,0.4,3.4c0.3,1,0.7,1.9,1.3,2.6c0.6,0.7,1.3,1.3,2.2,1.7
			C72.2,31.3,73.2,31.5,74.3,31.5z"/>
		<path fill="#4C5359" d="M88.6,6v26h-0.9V6H88.6z"/>
		<path fill="#4C5359" d="M98.6,38c-0.1,0.1-0.1,0.2-0.2,0.3c-0.1,0.1-0.2,0.1-0.4,0.1h-0.6l3.1-6.9l-7.6-17.3h0.7
			c0.1,0,0.2,0,0.3,0.1c0.1,0.1,0.1,0.1,0.2,0.2l6.6,15.2c0.1,0.3,0.2,0.5,0.3,0.8c0.1-0.3,0.2-0.5,0.3-0.8l6.6-15.2
			c0-0.1,0.1-0.2,0.2-0.2c0.1-0.1,0.2-0.1,0.3-0.1h0.7L98.6,38z"/>
	</g>
	<g>
		<g>
			<linearGradient id="SVGID_1_" gradientUnits="userSpaceOnUse" x1="1.0391" y1="33.5683" x2="36.4638" y2="33.5683">
				<stop  offset="0" style="stop-color:#5FCF80"/>
				<stop  offset="0.348" style="stop-color:#4FC1A1"/>
				<stop  offset="0.7713" style="stop-color:#3FB3C4"/>
				<stop  offset="1" style="stop-color:#39ADD1"/>
			</linearGradient>
			<polyline fill="url(#SVGID_1_)" points="31.5,28.3 36.5,38.9 1,38.9 			"/>
			<linearGradient id="SVGID_2_" gradientUnits="userSpaceOnUse" x1="1.0391" y1="20" x2="26.3594" y2="20">
				<stop  offset="0" style="stop-color:#5FCF80"/>
				<stop  offset="0.348" style="stop-color:#4FC1A1"/>
				<stop  offset="0.7713" style="stop-color:#3FB3C4"/>
				<stop  offset="1" style="stop-color:#39ADD1"/>
			</linearGradient>
			<polyline fill="url(#SVGID_2_)" points="1,38.9 18.8,1.1 26.4,17.3 			"/>
		</g>
	</g>
</g>
</svg>
